<?xml version="1.0" encoding="UTF-8"?>
<svg xmlns="http://www.w3.org/2000/svg" width="192" height="192" viewBox="0 0 192 192" role="img" aria-label="MiniApp Base">
  <defs>
    <linearGradient id="miniapp-gradient" x1="0%" y1="0%" x2="100%" y2="100%">
      <stop offset="0%" stop-color="#4358e6" />
      <stop offset="100%" stop-color="#7c8cff" />
    </linearGradient>
  </defs>
  <rect width="192" height="192" rx="36" fill="url(#miniapp-gradient)" />
  <g fill="#ffffff" opacity="0.9">
    <path d="M48 54h44a10 10 0 0 1 10 10v44a10 10 0 0 1-10 10H48a10 10 0 0 1-10-10V64a10 10 0 0 1 10-10zm0 14a4 4 0 0 0-4 4v44a4 4 0 0 0 4 4h44a4 4 0 0 0 4-4V72a4 4 0 0 0-4-4z" />
    <path d="M100 92h44a10 10 0 0 1 10 10v44a10 10 0 0 1-10 10h-44a10 10 0 0 1-10-10v-44a10 10 0 0 1 10-10zm0 14a4 4 0 0 0-4 4v44a4 4 0 0 0 4 4h44a4 4 0 0 0 4-4v-44a4 4 0 0 0-4-4z" />
    <path d="M106 48a6 6 0 0 1 6-6h24a6 6 0 0 1 6 6v24a6 6 0 0 1-6 6h-24a6 6 0 0 1-6-6z" />
    <path d="M56 122a6 6 0 0 1 6-6h24a6 6 0 0 1 6 6v24a6 6 0 0 1-6 6H62a6 6 0 0 1-6-6z" />
  </g>
</svg>
